# Blender v2.78 (sub 0) OBJ File: 'holder.blend'
# www.blender.org
mtllib holder.mtl
o Holder_Cone.001
v 0.000000 0.250000 -1.000000
v 0.866025 0.250000 -0.500000
v 0.866025 0.250000 0.500000
v -0.000000 0.250000 1.000000
v -0.866025 0.250000 0.500000
v -0.866025 0.250000 -0.500000
v 0.000000 -0.750000 0.000000
v -0.002250 -0.954743 -1.199470
v -0.002250 0.245257 -1.199470
v 1.036980 -0.954743 -0.599470
v 1.036980 0.245257 -0.599470
v 1.036980 -0.954743 0.600530
v 1.036980 0.245257 0.600530
v -0.002250 -0.954743 1.200530
v -0.002250 0.245257 1.200530
v -1.041481 -0.954743 0.600530
v -1.041481 0.245257 0.600530
v -1.041481 -0.954743 -0.599470
v -1.041481 0.245257 -0.599470
vn 0.3780 -0.6547 -0.6547
vn -0.7559 -0.6547 0.0000
vn -0.3780 -0.6547 0.6547
vn 0.3780 -0.6547 0.6547
vn 0.7559 -0.6547 0.0000
vn -0.3780 -0.6547 -0.6547
vn 0.5000 0.0000 -0.8660
vn 1.0000 0.0000 0.0000
vn 0.5000 0.0000 0.8660
vn -0.5000 0.0000 0.8660
vn -1.0000 0.0000 0.0000
vn -0.5000 0.0000 -0.8660
vn 0.0138 0.9996 -0.0239
vn -0.0136 0.9996 -0.0236
vn -0.0270 0.9996 0.0000
vn -0.0136 0.9996 0.0235
vn 0.0277 0.9996 0.0000
vn 0.0137 0.9996 0.0238
vn 0.0000 -1.0000 -0.0000
usemtl Material.002
s off
f 1//1 2//1 7//1
f 5//2 6//2 7//2
f 4//3 5//3 7//3
f 3//4 4//4 7//4
f 2//5 3//5 7//5
f 6//6 1//6 7//6
f 9//7 10//7 8//7
f 11//8 12//8 10//8
f 13//9 14//9 12//9
f 15//10 16//10 14//10
f 17//11 18//11 16//11
f 19//12 8//12 18//12
f 11//13 1//13 2//13
f 6//14 9//14 19//14
f 5//15 19//15 17//15
f 15//16 5//16 17//16
f 11//17 3//17 13//17
f 13//18 4//18 15//18
f 10//19 14//19 8//19
f 9//7 11//7 10//7
f 11//8 13//8 12//8
f 13//9 15//9 14//9
f 15//10 17//10 16//10
f 17//11 19//11 18//11
f 19//12 9//12 8//12
f 11//13 9//13 1//13
f 6//14 1//14 9//14
f 5//15 6//15 19//15
f 15//16 4//16 5//16
f 11//17 2//17 3//17
f 13//18 3//18 4//18
f 18//19 8//19 14//19
f 10//19 12//19 14//19
f 14//19 16//19 18//19
